<?xml version="1.0" standalone="no"?>
<!DOCTYPE svg PUBLIC "-//W3C//DTD SVG 20010904//EN"
 "http://www.w3.org/TR/2001/REC-SVG-20010904/DTD/svg10.dtd">
<svg version="1.0" xmlns="http://www.w3.org/2000/svg"
 width="512.000000pt" height="512.000000pt" viewBox="0 0 512.000000 512.000000"
 preserveAspectRatio="xMidYMid meet">
<metadata>
Created by potrace 1.14, written by Peter Selinger 2001-2017
</metadata>
<g transform="translate(0.000000,512.000000) scale(0.100000,-0.100000)"
fill="#000000" stroke="none">
<path d="M0 2560 l0 -2560 2560 0 2560 0 0 788 c-1 501 -4 782 -10 772 -7 -10
-10 -11 -10 -2 0 6 -4 12 -10 12 -5 0 -10 -19 -11 -42 l-1 -43 -9 33 c-5 17
-14 32 -19 32 -6 0 -5 -9 2 -20 9 -13 9 -23 2 -30 -12 -12 -25 11 -42 70 l-10
35 -1 -40 c0 -22 6 -62 14 -89 14 -45 14 -47 -2 -35 -12 10 -15 10 -9 1 4 -7
1 -15 -10 -19 -16 -6 -16 -7 2 -14 18 -7 17 -8 -3 -8 -12 -1 -24 3 -27 8 -3 4
-16 6 -28 4 -13 -2 -95 5 -182 17 -87 12 -160 19 -163 17 -2 -3 13 -8 33 -11
20 -4 33 -11 28 -16 -5 -4 -85 0 -179 10 -297 33 -494 45 -516 32 -27 -17 -71
-15 -174 10 -87 21 -149 48 -75 34 81 -16 100 -18 100 -9 0 11 -65 29 -136 38
-75 10 -77 13 -53 75 32 83 24 168 -23 260 -28 55 -34 72 -23 76 8 3 19 3 25
-1 7 -4 57 -11 113 -16 56 -5 111 -10 122 -11 18 -3 21 4 25 58 8 91 -4 656
-14 677 -8 17 -5 18 30 13 l39 -6 -35 11 c-19 6 -48 17 -65 25 -26 12 -27 13
-5 9 14 -3 81 -12 148 -19 68 -8 126 -17 130 -20 3 -3 -35 -7 -84 -7 l-89 -2
115 -12 c63 -7 104 -13 90 -15 -18 -2 -20 -4 -7 -7 17 -5 24 -23 8 -23 -5 0
-8 -8 -6 -17 2 -10 4 -22 5 -28 1 -5 5 0 10 13 11 25 30 30 30 7 0 -8 -5 -15
-11 -15 -8 0 -8 -5 1 -15 7 -8 16 -12 21 -9 5 3 9 0 9 -5 0 -6 -6 -11 -12 -11
-9 0 -8 -4 2 -10 8 -5 11 -10 5 -10 -6 0 -9 -73 -8 -203 2 -213 -1 -247 -23
-247 -7 0 -14 -12 -16 -27 -2 -20 -11 -29 -38 -39 l-35 -12 25 -10 c19 -8 20
-11 7 -11 -10 -1 -15 -5 -12 -11 3 -5 -1 -10 -9 -10 -9 0 -16 -9 -16 -20 0
-12 -7 -20 -16 -20 -10 0 -14 -6 -10 -15 3 -10 -1 -15 -11 -15 -41 0 16 -29
107 -54 52 -15 99 -31 106 -36 12 -10 25 -12 214 -31 63 -6 133 -14 155 -19
48 -10 339 -46 448 -55 l77 -7 0 1731 0 1731 -2560 0 -2560 0 0 -2560z m2735
2399 c16 -16 -30 -10 -51 6 -18 14 -17 15 11 9 17 -4 34 -11 40 -15z m1175
-340 c0 -5 -4 -9 -10 -9 -5 0 -10 7 -10 16 0 8 5 12 10 9 6 -3 10 -10 10 -16z
m-2890 -368 c0 -6 -4 -13 -10 -16 -5 -3 -10 1 -10 9 0 9 5 16 10 16 6 0 10 -4
10 -9z m974 -1581 c-7 -277 -10 -307 -15 -205 -9 175 -10 1051 -1 1255 6 163
8 145 15 -275 5 -247 5 -596 1 -775z m64 1203 c-10 -2 -28 -2 -40 0 -13 2 -5
4 17 4 22 1 32 -1 23 -4z m392 -80 c1 -249 12 -494 23 -543 l14 -55 9 80 c5
44 8 174 8 289 -1 119 2 202 7 195 5 -8 9 -24 9 -36 0 -16 8 -24 28 -29 37 -9
50 -21 73 -65 21 -42 25 -112 9 -155 -15 -37 -6 -56 35 -79 45 -24 137 -117
148 -150 5 -14 13 -25 18 -25 5 0 9 -8 9 -17 0 -10 7 -31 15 -47 17 -33 19
-119 5 -254 -8 -70 -18 -108 -42 -158 -33 -67 -105 -144 -164 -174 -35 -18
-44 -29 -37 -47 9 -22 -6 -62 -28 -73 -11 -6 -33 -8 -50 -5 l-29 7 -1 81 c0
45 -6 100 -13 122 -13 39 -13 40 -23 15 -8 -20 -18 -146 -26 -327 -1 -26 -27
-32 -27 -7 0 11 -5 14 -16 10 -18 -7 -64 39 -64 64 0 9 -11 29 -24 43 -23 25
-26 67 -5 67 19 0 -4 27 -39 45 -39 21 -96 60 -123 85 -20 19 -64 114 -74 160
-11 49 -8 302 3 309 5 3 17 27 27 53 22 59 105 152 191 213 59 42 65 50 60 74
-27 123 -27 124 -3 171 13 25 37 54 55 65 30 19 31 22 32 92 l0 72 -37 4 -38
4 43 1 42 2 0 -77z m349 51 c2 -2 -57 -4 -132 -4 -85 0 -138 4 -142 11 -5 7
35 8 132 3 76 -4 140 -8 142 -10z m-292 -16 c-3 -8 -6 -5 -6 6 -1 11 2 17 5
13 3 -3 4 -12 1 -19z m597 8 c-5 -14 -55 -26 -108 -26 -16 0 -27 3 -23 6 4 5
80 24 129 33 4 0 5 -5 2 -13z m44 -786 c5 -283 7 -614 3 -735 -4 -121 -8 -186
-9 -145 -2 41 -9 282 -17 535 -16 493 -20 1097 -7 1109 11 12 19 -197 30 -764z
m-2348 670 c0 -5 -2 -10 -4 -10 -3 0 -8 5 -11 10 -3 6 -1 10 4 10 6 0 11 -4
11 -10z m3620 -166 c8 -9 -24 -24 -50 -23 -40 2 -78 15 -60 22 40 15 95 16
110 1z m-35 -64 c4 -6 -15 -9 -52 -8 l-58 1 45 7 c25 4 48 8 52 8 4 1 10 -2
13 -8z m-1421 -515 c-2 -115 -8 -244 -11 -285 l-7 -75 -7 50 c-13 92 -10 748
4 786 11 31 13 20 19 -116 4 -82 5 -244 2 -360z m-166 445 c-7 -10 -14 -17
-17 -15 -4 4 18 35 25 35 2 0 -1 -9 -8 -20z m1600 -54 c-3 -17 2 -29 19 -41
35 -27 28 -35 -32 -35 -48 0 -55 2 -55 20 0 11 3 20 8 20 4 0 13 14 20 30 17
37 47 41 40 6z m57 -96 c11 -5 15 -9 8 -9 -6 -1 -10 -9 -9 -18 3 -12 -7 -24
-29 -35 -29 -14 -36 -15 -60 -2 -15 8 -34 14 -42 14 -12 0 -13 3 -4 14 9 11 8
18 -4 30 -15 15 -11 16 52 15 37 0 77 -4 88 -9z m-659 -115 c-3 -8 0 -15 7
-16 7 0 1 -5 -13 -10 -33 -13 -76 -3 -61 15 6 7 8 16 4 19 -3 4 11 7 31 7 30
0 37 -3 32 -15z m597 -102 c-7 -2 -21 -2 -30 0 -10 3 -4 5 12 5 17 0 24 -2 18
-5z m10 -170 c-13 -2 -35 -2 -50 0 -16 2 -5 4 22 4 28 0 40 -2 28 -4z m-323
-59 c0 -8 -5 -12 -10 -9 -6 4 -8 11 -5 16 9 14 15 11 15 -7z m406 -325 c50
-49 76 -119 82 -225 7 -139 -32 -250 -124 -352 -74 -83 -138 -107 -212 -81
-44 15 -53 59 -15 73 11 5 13 2 9 -10 -10 -27 12 -54 45 -54 89 0 197 130 244
295 23 79 17 213 -13 271 -29 57 -75 94 -117 94 -37 0 -45 -12 -45 -67 0 -44
-24 -40 -28 5 -9 91 99 123 174 51z m-2998 -86 c-10 -2 -26 -2 -35 0 -10 3 -2
5 17 5 19 0 27 -2 18 -5z m-353 -13 c3 -5 -1 -10 -9 -10 -9 0 -16 5 -16 10 0
6 4 10 9 10 6 0 13 -4 16 -10z m203 3 c-26 -2 -71 -2 -100 0 -29 2 -8 3 47 3
55 0 79 -1 53 -3z m207 -46 c4 -13 5 -50 3 -82 l-3 -60 -50 -7 c-60 -9 -371
-15 -378 -8 -3 3 -7 36 -9 75 l-3 69 40 8 c33 7 217 20 362 27 26 1 34 -4 38
-22z m1083 -29 c22 -22 13 -36 -35 -52 -50 -17 -93 -21 -93 -8 0 4 23 15 50
25 29 10 50 24 50 32 0 18 12 19 28 3z m-278 -29 c25 -6 56 -12 70 -13 13 -2
26 -9 28 -16 4 -10 -7 -11 -49 -6 -70 9 -121 25 -114 37 7 11 9 11 65 -2z m87
5 c-3 -3 -12 -4 -19 -1 -8 3 -5 6 6 6 11 1 17 -2 13 -5z m1353 -35 c0 -5 -4
-9 -10 -9 -5 0 -10 7 -10 16 0 8 5 12 10 9 6 -3 10 -10 10 -16z m4 -51 c3 -13
6 -33 6 -46 0 -19 -5 -23 -22 -20 -27 4 -37 50 -17 74 16 20 26 18 33 -8z
m-1264 -68 c0 -5 -4 -10 -10 -10 -5 0 -10 5 -10 10 0 6 5 10 10 10 6 0 10 -4
10 -10z m-1076 -9 c4 -5 9 -38 12 -74 l5 -65 -63 -10 c-73 -13 -275 -17 -300
-7 -14 6 -18 19 -18 65 0 71 -6 68 169 85 163 16 189 17 195 6z m1061 -52 c0
-18 -6 -25 -24 -27 -13 -2 -28 1 -34 7 -8 8 -4 11 14 11 l24 1 -25 13 -24 14
24 5 c38 6 45 3 45 -24z m610 -19 c13 -6 15 -9 5 -9 -8 0 -22 4 -30 9 -18 12
-2 12 25 0z m-765 -6 c22 -5 28 -9 18 -16 -8 -5 22 -7 74 -6 49 2 88 7 88 11
0 5 4 6 9 2 5 -3 13 -1 16 5 4 6 26 8 53 5 26 -2 94 -7 152 -11 118 -6 139 -9
160 -18 8 -3 44 -12 79 -19 47 -10 67 -19 72 -33 4 -10 8 -13 8 -6 1 15 27 16
37 0 4 -7 3 -8 -4 -4 -7 4 -12 3 -12 -3 0 -28 -160 -53 -455 -72 -176 -11
-205 -10 -385 10 -107 11 -216 26 -241 31 -44 10 -46 13 -46 46 0 24 4 33 13
30 7 -3 15 0 18 7 3 9 6 9 13 0 5 -7 14 -9 22 -3 8 4 20 6 28 3 7 -3 21 -2 30
1 15 6 15 8 3 16 -12 8 -9 10 10 9 35 -1 184 12 189 17 6 5 13 5 51 -2z m-834
-61 c-9 -9 -35 11 -45 35 l-13 27 31 -29 c17 -16 29 -31 27 -33z m1921 34 c23
-14 1 -45 -35 -52 -45 -8 -62 -21 -62 -47 0 -10 -6 -21 -14 -24 -7 -3 -28 -27
-45 -54 -37 -57 -49 -66 -64 -51 -15 15 -37 14 -43 -4 -8 -21 -71 -85 -83 -85
-6 0 -11 -4 -11 -10 0 -5 -7 -10 -15 -10 -45 0 52 -191 120 -236 13 -9 73 -33
132 -54 86 -30 130 -39 213 -45 58 -4 114 -8 126 -9 18 -1 19 -3 7 -26 -7 -14
-13 -35 -13 -46 0 -33 -15 -40 -140 -64 -117 -23 -252 -31 -325 -18 -22 4 -31
5 -20 2 36 -10 38 -22 3 -29 -18 -4 -57 -20 -86 -36 l-53 -30 -152 45 c-239
70 -297 85 -297 76 0 -5 8 -11 18 -14 69 -20 304 -86 310 -87 4 0 -2 -4 -13
-9 -11 -4 -157 -6 -325 -3 -259 4 -339 2 -531 -16 -241 -22 -335 -26 -341 -13
-1 4 -43 5 -93 1 -144 -12 -237 -11 -229 2 5 8 1 8 -14 0 -11 -6 -34 -9 -51
-6 -17 2 -31 -1 -31 -6 0 -5 -7 -9 -16 -9 -8 0 -12 5 -8 11 5 8 1 8 -13 0 -15
-7 -25 -6 -40 4 -17 12 -22 12 -26 2 -5 -13 -110 -37 -161 -37 -23 0 -26 4
-26 38 0 21 -5 43 -11 49 -9 9 -1 25 32 65 92 111 182 208 195 208 8 0 14 7
14 15 0 21 70 65 104 65 16 0 27 3 24 6 -6 6 6 23 52 71 l25 26 -28 -7 c-17
-4 -26 -3 -23 3 3 5 -3 7 -15 4 -19 -5 -64 -48 -174 -165 -56 -59 -134 -119
-90 -69 11 13 19 31 17 40 -1 9 29 47 73 90 42 41 78 85 81 98 7 25 111 103
139 103 8 0 18 -7 21 -15 9 -22 22 -19 58 13 24 21 30 34 28 56 l-4 29 93 -6
c51 -4 121 -12 157 -18 35 -6 83 -9 105 -6 26 4 103 -4 197 -21 145 -25 175
-26 470 -27 294 0 463 11 497 33 5 4 13 35 16 70 7 69 35 132 73 165 19 17 24
28 19 52 l-5 30 11 -27 11 -28 41 22 c23 11 53 25 67 29 28 9 161 6 177 -4z
m-1557 -43 c0 -18 -4 -22 -17 -17 -49 17 -56 42 -13 41 24 -1 30 -5 30 -24z
m-730 -312 c0 -7 -46 -18 -222 -52 -21 -4 -38 -4 -38 1 0 8 44 18 180 43 41 7
76 14 78 15 1 0 2 -3 2 -7z m2493 -169 c-13 -2 -33 -2 -45 0 -13 2 -3 4 22 4
25 0 35 -2 23 -4z m422 -105 c19 0 171 -23 226 -34 14 -3 26 -11 26 -18 0 -10
-13 -10 -65 0 -79 15 -69 2 12 -15 75 -17 126 -38 106 -45 -8 -2 -107 -21
-220 -40 -113 -20 -247 -44 -299 -53 l-94 -17 -23 28 c-31 36 -22 50 27 42 21
-3 47 -2 56 4 10 6 81 23 158 40 141 29 210 48 189 49 -18 1 -169 -28 -261
-50 l-83 -20 -45 22 c-36 18 -42 25 -33 36 35 43 173 85 248 77 30 -4 64 -6
75 -6z m302 -64 c-3 -3 -12 -4 -19 -1 -8 3 -5 6 6 6 11 1 17 -2 13 -5z m43 -4
c8 -5 11 -10 5 -10 -5 0 -17 5 -25 10 -8 5 -10 10 -5 10 6 0 17 -5 25 -10z
m103 -17 c-7 -2 -21 -2 -30 0 -10 3 -4 5 12 5 17 0 24 -2 18 -5z m52 -74 c19
-9 19 -9 -2 -5 -13 2 -28 -3 -35 -12 -11 -13 -10 -15 10 -10 12 4 20 2 17 -2
-3 -5 2 -15 10 -24 14 -14 12 -16 -17 -24 l-33 -9 25 -10 c23 -9 21 -11 -25
-17 -49 -6 -120 -9 -160 -7 -22 1 -70 64 -61 80 4 5 48 13 99 17 50 5 95 9
100 10 4 1 15 3 25 4 9 1 1 6 -18 10 l-35 7 40 1 c22 0 49 -4 60 -9z m-900
-62 c11 -18 40 -42 65 -55 l45 -22 -96 2 c-91 3 -99 5 -147 38 -28 19 -49 37
-46 40 5 4 112 25 149 28 6 1 19 -13 30 -31z m619 -9 c12 -46 9 -48 -58 -48
-63 0 -80 8 -88 40 -3 15 36 26 103 29 30 1 38 -3 43 -21z m-788 -20 c24 -17
44 -34 44 -36 0 -8 -122 6 -174 19 -25 6 -46 15 -46 19 0 6 45 17 123 29 5 0
29 -13 53 -31z m630 5 c26 -34 16 -39 -74 -42 -86 -2 -154 11 -122 23 12 4
143 31 174 35 5 0 15 -7 22 -16z m-886 -27 c11 -14 3 -16 -71 -16 -75 0 -81 1
-63 14 29 21 86 34 105 25 9 -4 21 -15 29 -23z m-2449 -143 c-12 -23 -105
-123 -95 -103 8 15 96 120 102 120 1 0 -2 -8 -7 -17z"/>
<path d="M2850 1294 c46 -21 199 -66 212 -62 5 2 -41 19 -104 37 -149 44 -149
44 -108 25z"/>
<path d="M3088 1223 c7 -3 16 -2 19 1 4 3 -2 6 -13 5 -11 0 -14 -3 -6 -6z"/>
<path d="M3128 1213 c7 -3 16 -2 19 1 4 3 -2 6 -13 5 -11 0 -14 -3 -6 -6z"/>
<path d="M4110 2070 c-9 -6 -10 -10 -3 -10 6 0 15 5 18 10 8 12 4 12 -15 0z"/>
<path d="M4045 2040 c-3 -5 -2 -10 4 -10 5 0 13 5 16 10 3 6 2 10 -4 10 -5 0
-13 -4 -16 -10z"/>
<path d="M4085 2020 c-3 -5 -1 -10 4 -10 6 0 11 5 11 10 0 6 -2 10 -4 10 -3 0
-8 -4 -11 -10z"/>
<path d="M3932 1659 c-35 -11 -62 -22 -60 -24 2 -2 37 7 78 20 41 13 68 23 60
24 -8 0 -44 -9 -78 -20z"/>
<path d="M4930 1595 c0 -8 2 -15 4 -15 2 0 6 7 10 15 3 8 1 15 -4 15 -6 0 -10
-7 -10 -15z"/>
<path d="M4791 1534 c0 -11 3 -14 6 -6 3 7 2 16 -1 19 -3 4 -6 -2 -5 -13z"/>
<path d="M4921 1535 c0 -11 3 -24 7 -30 10 -14 42 -18 42 -5 0 5 -7 10 -15 10
-9 0 -20 10 -25 23 -8 20 -9 20 -9 2z"/>
<path d="M4854 1499 c-3 -6 -1 -16 5 -22 8 -8 11 -5 11 11 0 24 -5 28 -16 11z"/>
<path d="M4928 1468 c5 -5 16 -8 23 -6 8 3 3 7 -10 11 -17 4 -21 3 -13 -5z"/>
</g>
</svg>
